<svg width="150" height="150" viewBox="0 0 3711 3918" fill="none" xmlns="http://www.w3.org/2000/svg">
<path d="M1863.5 2770.5V3099M1863.5 3483L2055.71 3795.4C2073.91 3824.98 2106.16 3843 2140.88 3843H2465.4C2499.97 3843 2532.1 3825.14 2550.34 3795.77L2714.5 3531.5M1863.5 3483V3099M1863.5 3483L1671.29 3795.4C1653.09 3824.98 1620.84 3843 1586.12 3843H1266.73C1232.36 3843 1200.39 3825.35 1182.09 3796.26L1015.5 3531.5M2714.5 3531.5H3080.09C3115.1 3531.5 3147.57 3513.19 3165.68 3483.22L3327.86 3214.87C3346.49 3184.05 3347.1 3145.59 3329.47 3114.19L3222.41 2923.5M2714.5 3531.5L2736.7 3468.66C2746.98 3439.54 2743.23 3407.3 2726.54 3381.31L2621 3217M2860 2770.5H3077.96C3114.12 2770.5 3147.46 2790.02 3165.16 2821.54L3222.41 2923.5M1863.5 3099H2055.6C2089.24 3099 2120.64 3115.92 2139.13 3144.03L2237.5 3293.5M1015.5 3531.5H646.181C611.021 3531.5 578.445 3513.04 560.383 3482.87L383.316 3187.13C365.417 3157.23 364.369 3120.18 380.55 3089.32L467.5 2923.5M1015.5 3531.5L1113.5 3369M467.5 2923.5H682.211C713.285 2923.5 742.594 2909.05 761.521 2884.41L818.979 2809.59C837.906 2784.95 867.215 2770.5 898.289 2770.5H1069.5M467.5 2923.5H353.083C317.438 2923.5 284.488 2904.53 266.595 2873.7L102.539 2591.03C84.5746 2560.08 84.5206 2521.89 102.398 2490.88L247.064 2240M3222.41 2923.5H3374.4C3410.85 2923.5 3444.42 2903.66 3462 2871.72L3620.93 2583C3638.28 2551.47 3637.36 2513.06 3618.52 2482.41L3477.5 2253M3477.5 2253L3624.44 1963.41C3639.76 1933.22 3638.76 1897.33 3621.79 1868.03L3462.39 1592.87C3444.51 1562 3411.54 1543 3375.86 1543H3306.5M3477.5 2253H3086.81C3052.67 2253 3020.88 2235.58 3002.51 2206.8L2923.5 2083M3306.5 1543L3251.88 1628.73C3233.52 1657.55 3201.72 1675 3167.54 1675H2851M3306.5 1543L3406.67 1355.29C3423.3 1324.12 3422.25 1286.48 3403.91 1256.29L3234.17 976.906C3217.43 949.347 3188.43 931.553 3156.27 929.114L3062.5 922M2479 2116L2723.66 1722.23C2741.9 1692.86 2774.02 1675 2808.6 1675H2851M2479 2116H2180.86C2173.97 2116 2167.1 2115.29 2160.36 2113.87L2013 2083M2479 2116L2567 2253M2851 1675L2988.5 1459.5M3062.5 922L2987.96 1024C2969.13 1049.77 2939.13 1065 2907.22 1065H2858.01C2828.23 1065 2800.01 1051.73 2781.01 1028.81L2722.49 958.194C2703.49 935.268 2675.27 922 2645.49 922H2528.5M3062.5 922L3090.27 868.54C3106.26 837.75 3105.15 800.87 3087.33 771.097L2920.11 491.651C2902.05 461.474 2869.47 443 2834.3 443H2738.5M2292.5 702.5L2419.36 491.478C2437.44 461.398 2469.97 443 2505.06 443H2738.5M2738.5 443L2557.28 125.437C2539.49 94.2508 2506.34 75 2470.43 75H2157.53C2124.92 75 2094.36 90.9041 2075.64 117.613L1869 412.5M1869 412.5L1661.87 117.532C1643.14 90.8701 1612.61 75 1580.03 75H1254.83C1218.52 75 1185.06 94.6848 1167.42 126.426L986.5 452M1869 412.5V1159M1113.5 2345L1031.02 2205.19C1013.04 2174.71 980.281 2156 944.89 2156H784M247.064 2240L266.642 2206.05C284.498 2175.08 317.525 2156 353.271 2156H784M247.064 2240L88.3034 1963.73C69.6875 1931.34 70.6832 1891.27 90.8852 1859.84L265.978 1587.43C284.377 1558.8 316.071 1541.5 350.1 1541.5H410M410 1541.5L472.299 1634.61C490.859 1662.35 522.035 1679 555.411 1679H701M410 1541.5L317.667 1343.93C303.783 1314.22 305.347 1279.6 321.853 1251.26L473.069 991.666C490.982 960.914 523.889 942 559.478 942H680.5M1032.5 1072L975.679 986.604C957.139 958.741 925.891 942 892.424 942H680.5M680.5 942L639.518 867.757C622.19 836.366 622.995 798.101 641.628 767.466L804.284 500.035C822.426 470.207 854.81 452 889.722 452H986.5M986.5 452L1155.11 780.648C1172.23 814.016 1206.58 835 1244.09 835H1425.5M784 2156L1018.5 1723M1018.5 1723L867 1443M1018.5 1723H1586" stroke="url(#paint0_linear_83_20)" stroke-width="150"/>
<path d="M1301 1796.5V1801.5H1306H1585.95H1590.95V1796.5V1473.01H2144.05V1727.03L1718.3 1882.43L1715.02 1883.63V1887.13V2287.82V2292.82H1720.02H1999.96H2004.96V2287.82V2148.56L2430.69 1995.46L2434 1994.27V1990.75V1141V1136H2429H1306H1301V1141V1796.5ZM1778.08 2778.88L1778.82 2783H1783H1938.5H1942.7L1943.43 2778.86L2004.89 2426.85L2005.91 2420.99H1999.96H1720.02H1714.05L1715.1 2426.87L1778.08 2778.88Z" fill="#73FF7D" stroke="black" stroke-width="10"/>
<defs>
<linearGradient id="paint0_linear_83_20" x1="1853" y1="422.5" x2="1853" y2="3495.5" gradientUnits="userSpaceOnUse">
<stop stop-color="#07FFCE"/>
<stop offset="0.279788" stop-color="#6E6AF5"/>
<stop offset="0.732145" stop-color="#07FFCE"/>
<stop offset="1" stop-color="#118AB2"/>
</linearGradient>
</defs>
</svg>
